# xmcd
#
# Track frame offsets: 
#        150
#        13522
#        30562
#        40800
#        57930
#        66432
#        85887
#        99560
#        117497
#        169255
#        173435
#        197522
#        201110
#        235267
#        264202
#        277062
#        280110
#        309297
#
# Disc length: 4437 seconds
#
# Revision: 8
# Processed by: cddbd v1.5.2PL0 Copyright (c) Steve Scherf et al.
# Submitted via: ExactAudioCopyFreeDBPlugin 1.0
#
DISCID=f2115312
DTITLE=Tom Waits - Nighthawks at the Diner
DYEAR=1975
DGENRE=Jazz Blues
TTITLE0=[opening intro]
TTITLE1=Emotional Weather Report
TTITLE2=[intro1]
TTITLE3=On a Foggy Night
TTITLE4=[intro2]
TTITLE5=Eggs and Sausage (In a Cadillac With Susan Michelson)
TTITLE6=[intro3]
TTITLE7=Better Off Without a Wife
TTITLE8=Nighthawk Postcards (From Easy Street)
TTITLE9=[intro4]
TTITLE10=Warm Beer and Cold Women
TTITLE11=[intro5]
TTITLE12=Putnam County
TTITLE13=Spare Parts I (A Nocturnal Emission)
TTITLE14=Nobody
TTITLE15=[intro6]
TTITLE16=Big Joe and Phantom 309
TTITLE17=Spare Parts II and Closing
EXTD=
EXTT0=
EXTT1=
EXTT2=
EXTT3=
EXTT4=
EXTT5=
EXTT6=
EXTT7=
EXTT8=
EXTT9=
EXTT10=
EXTT11=
EXTT12=
EXTT13=
EXTT14=
EXTT15=
EXTT16=
EXTT17=
PLAYORDER=
